#!OML:ASF H:\Dans Jumps\Project 1\Capture day 1\Session 1\subject.ASF
:FULLY-SPECIFIED
:DEGREES
566
root 0.508876 17.7664 6.76575 7.77746 -1.0888 -1.99776
lowerback -4.59929 0.905434 -0.00786777
upperback 1.78934 1.17962 0.703795
thorax 4.41244 0.574715 0.829728
lowerneck -10.4629 -0.0756189 -1.5559
upperneck 32.0834 -0.190261 1.47365
head 12.3058 -0.0808607 0.808237
rclavicle -1.37224e-014 -5.56597e-015
rhumerus -28.4179 -16.3134 -79.8809
rradius 27.0353
rwrist 31.9964
rhand -19.823 -25.8885
rfingers 7.12502
rthumb 6.51066 -55.7684
lclavicle -1.37224e-014 -5.56597e-015
lhumerus -29.2523 4.82842 81.5292
lradius 22.9457
lwrist 11.3989
lhand -27.2793 -7.73795
lfingers 7.12502
lthumb -0.689826 22.2407
rfemur -11.8749 -2.98394 20.4035
rtibia 18.1754
rfoot -12.3558 2.64531
rtoes 16.8795
lfemur -10.5946 6.45713 -17.5447
ltibia 16.795
lfoot -8.87768 8.36729
ltoes 1.75317
567
root 0.501759 17.7651 6.77258 7.75709 -1.11839 -1.98873
lowerback -4.61943 0.907748 -0.0122292
upperback 1.79686 1.1832 0.696094
thorax 4.43171 0.576394 0.825007
lowerneck -10.4785 -0.069505 -1.5342
upperneck 31.989 -0.177944 1.44847
head 12.2701 -0.0757621 0.795706
rclavicle 2.59911e-014 6.06293e-015
rhumerus -28.3779 -16.1467 -79.9303
rradius 27.1813
rwrist 31.803
rhand -19.8661 -25.9172
rfingers 7.12502
rthumb 6.46908 -55.7984
lclavicle 2.59911e-014 6.06293e-015
lhumerus -29.1782 4.88702 81.5212
lradius 22.9641
lwrist 11.3579
lhand -27.2687 -7.80407
lfingers 7.12502
lthumb -0.679638 22.1746
rfemur -11.8435 -3.0134 20.4152
rtibia 18.1997
rfoot -12.3957 2.70911
rtoes 16.9147
lfemur -10.5302 6.42527 -17.5258
ltibia 16.7845
lfoot -8.88732 8.44095
ltoes 1.72686
568
root 0.494784 17.7639 6.7784 7.74284 -1.14035 -1.9816
lowerback -4.63951 0.906466 -0.0145924
upperback 1.80611 1.18179 0.689886
thorax 4.45281 0.575619 0.820315
lowerneck -10.4998 -0.0630096 -1.519
upperneck 31.8869 -0.165611 1.43003
head 12.2325 -0.070572 0.786839
rclavicle 1.55301e-015 -4.87022e-015
rhumerus -28.3204 -15.9999 -79.9776
rradius 27.3118
rwrist 31.6238
rhand -19.9147 -25.9374
rfingers 7.12502
rthumb 6.42221 -55.82
lclavicle 1.55301e-015 -4.87022e-015
lhumerus -29.1047 4.96645 81.5101
lradius 22.978
lwrist 11.315
lhand -27.2438 -7.82558
lfingers 7.12502
lthumb -0.655565 22.1532
rfemur -11.8206 -3.04306 20.4294
rtibia 18.222
rfoot -12.4343 2.7653
rtoes 16.9431
lfemur -10.4806 6.3961 -17.5058
ltibia 16.7789
lfoot -8.89687 8.50286
ltoes 1.69784
569
root 0.487906 17.7626 6.78343 7.73305 -1.15855 -1.9844
lowerback -4.65681 0.903497 -0.00750686
upperback 1.81354 1.17737 0.687456
thorax 4.4706 0.573583 0.813895
lowerneck -10.5177 -0.0548831 -1.51125
upperneck 31.7777 -0.151454 1.41872
head 12.1915 -0.0645598 0.782171
rclavicle 9.405e-015 -1.59028e-015
rhumerus -28.2513 -15.877 -80.0205
rradius 27.4239
rwrist 31.4653
rhand -19.946 -25.9698
rfingers 7.12502
rthumb 6.39198 -55.8533
lclavicle 9.405e-015 -1.59028e-015
lhumerus -29.0373 5.05987 81.4986
lradius 22.9821
lwrist 11.2589
lhand -27.2209 -7.81357
lfingers 7.12502
lthumb -0.633411 22.1652
rfemur -11.8007 -3.06618 20.4545
rtibia 18.236
rfoot -12.4661 2.81433
rtoes 16.9828
lfemur -10.4449 6.36889 -17.4749
ltibia 16.7828
lfoot -8.90895 8.55878
ltoes 1.67554
570
root 0.481198 17.7615 6.78794 7.72763 -1.17488 -1.98592
lowerback -4.6716 0.89836 -0.00177279
upperback 1.81631 1.17013 0.685955
thorax 4.48211 0.57013 0.808842
lowerneck -10.5273 -0.0445564 -1.51198
upperneck 31.6641 -0.134016 1.41311
head 12.1469 -0.0573861 0.781526
rclavicle 2.12513e-014 -2.88238e-015
rhumerus -28.1799 -15.7749 -80.0564
rradius 27.5207
rwrist 31.3307
rhand -19.9698 -26.0054
rfingers 7.12502
rthumb 6.36896 -55.8896
lclavicle 2.12513e-014 -2.88238e-015
lhumerus -28.9796 5.15777 81.488
lradius 22.978
lwrist 11.2039
lhand -27.1927 -7.76209
lfingers 7.12502
lthumb -0.606222 22.2168
rfemur -11.7867 -3.08948 20.4776
rtibia 18.2482
rfoot -12.4963 2.86273
rtoes 17.0172
lfemur -10.4156 6.34303 -17.4464
ltibia 16.7856
lfoot -8.92231 8.60825
ltoes 1.66869
571
root 0.474577 17.7604 6.79209 7.72442 -1.18962 -1.99858
lowerback -4.68277 0.893304 0.0150741
upperback 1.81404 1.16214 0.688564
thorax 4.48647 0.566594 0.801601
lowerneck -10.5281 -0.035029 -1.51926
upperneck 31.5482 -0.117392 1.41092
head 12.0997 -0.0509214 0.783171
rclavicle -6.6655e-015 -2.98177e-016
rhumerus -28.1178 -15.6819 -80.0857
rradius 27.6127
rwrist 31.2034
rhand -19.9935 -26.0361
rfingers 7.12502
rthumb 6.34606 -55.9211
lclavicle -6.6655e-015 -2.98177e-016
lhumerus -28.9319 5.24478 81.4839
lradius 22.9625
lwrist 11.145
lhand -27.1888 -7.70009
lfingers 7.12502
lthumb -0.602422 22.2788
rfemur -11.7749 -3.10593 20.5129
rtibia 18.258
rfoot -12.5228 2.90456
rtoes 17.0525
lfemur -10.3897 6.32223 -17.4058
ltibia 16.7865
lfoot -8.93418 8.65067
ltoes 1.66276
572
root 0.468267 17.7595 6.79647 7.7195 -1.21006 -1.98465
lowerback -4.69376 0.887527 0.00520995
upperback 1.81126 1.15522 0.684336
thorax 4.48979 0.562931 0.802351
lowerneck -10.5318 -0.0282183 -1.52871
upperneck 31.43 -0.104316 1.4091
head 12.0524 -0.046232 0.78485
rclavicle 9.7156e-015 7.85199e-015
rhumerus -28.0653 -15.5902 -80.1106
rradius 27.707
rwrist 31.0831
rhand -20.0063 -26.0697
rfingers 7.12502
rthumb 6.33378 -55.955
lclavicle 9.7156e-015 7.85199e-015
lhumerus -28.8836 5.32435 81.4837
lradius 22.9254
lwrist 11.082
lhand -27.1986 -7.64718
lfingers 7.12502
lthumb -0.611876 22.3317
rfemur -11.7638 -3.12991 20.5167
rtibia 18.2717
rfoot -12.549 2.9565
rtoes 17.0908
lfemur -10.3553 6.30258 -17.3968
ltibia 16.7772
lfoot -8.94441 8.69343
ltoes 1.65773
